<?xml version="1.0" encoding="utf-8"?>
<svg data-v-fde0c5aa="" viewBox="36.996 119.395 227.017 60.538" class="iconLeft" xmlns="http://www.w3.org/2000/svg">
  <g data-v-fde0c5aa="" id="de55e70e-d2f5-4bd5-82b7-285cf98c975a" fill="#202A4F" transform="matrix(3.5459319657241273,0,0,3.5459319657241273,143.95008901899976,117.53699380066159)">
    <path d="M3.00 14L3.00 14Q2.77 14 2.73 13.79L2.73 13.79L0.27 4.47L0.27 4.47Q0.25 4.44 0.25 4.40L0.25 4.40L0.25 4.40Q0.25 4.20 0.48 4.20L0.48 4.20L2.07 4.20L2.07 4.20Q2.28 4.20 2.32 4.41L2.32 4.41L3.64 10.00L3.64 10.00Q3.65 10.05 3.70 10.05L3.70 10.05L3.70 10.05Q3.74 10.05 3.75 10.00L3.75 10.00L5.01 4.41L5.01 4.41Q5.05 4.20 5.26 4.20L5.26 4.20L6.85 4.20L6.85 4.20Q7.07 4.20 7.11 4.41L7.11 4.41L8.48 10.00L8.48 10.00Q8.50 10.05 8.53 10.05L8.53 10.05L8.53 10.05Q8.57 10.05 8.58 10.00L8.58 10.00L9.84 4.41L9.84 4.41Q9.88 4.20 10.09 4.20L10.09 4.20L11.62 4.20L11.62 4.20Q11.75 4.20 11.79 4.28L11.79 4.28L11.79 4.28Q11.84 4.35 11.82 4.47L11.82 4.47L9.56 13.79L9.56 13.79Q9.52 14 9.30 14L9.30 14L7.76 14L7.76 14Q7.53 14 7.49 13.79L7.49 13.79L6.09 7.84L6.09 7.84Q6.08 7.78 6.03 7.78L6.03 7.78L6.03 7.78Q5.99 7.78 5.98 7.84L5.98 7.84L4.68 13.79L4.68 13.79Q4.63 14 4.42 14L4.42 14L3.00 14ZM16.28 12.45L16.28 12.45Q17.21 12.40 17.70 11.80L17.70 11.80L17.70 11.80Q17.78 11.70 17.88 11.70L17.88 11.70L17.88 11.70Q17.96 11.70 18.03 11.77L18.03 11.77L18.83 12.54L18.83 12.54Q18.91 12.63 18.91 12.71L18.91 12.71L18.91 12.71Q18.91 12.81 18.86 12.88L18.86 12.88L18.86 12.88Q18.40 13.45 17.68 13.78L17.68 13.78L17.68 13.78Q16.95 14.11 16.10 14.11L16.10 14.11L16.10 14.11Q14.81 14.11 13.96 13.45L13.96 13.45L13.96 13.45Q13.12 12.80 12.82 11.65L12.82 11.65L12.82 11.65Q12.66 11.03 12.66 10.35L12.66 10.35L12.66 10.35Q12.66 9.53 12.81 8.97L12.81 8.97L12.81 8.97Q13.09 7.94 13.94 7.31L13.94 7.31L13.94 7.31Q14.78 6.68 15.95 6.68L15.95 6.68L15.95 6.68Q17.32 6.68 18.12 7.49L18.12 7.49L18.12 7.49Q18.93 8.30 19.17 9.77L19.17 9.77L19.17 9.77Q19.22 10.23 19.25 10.79L19.25 10.79L19.25 10.79Q19.25 11.03 19.01 11.03L19.01 11.03L14.71 11.03L14.71 11.03Q14.63 11.03 14.63 11.12L14.63 11.12L14.63 11.12Q14.67 11.41 14.73 11.55L14.73 11.55L14.73 11.55Q14.87 11.98 15.28 12.21L15.28 12.21L15.28 12.21Q15.69 12.45 16.28 12.45L16.28 12.45ZM15.92 8.39L15.92 8.39Q15.47 8.39 15.17 8.60L15.17 8.60L15.17 8.60Q14.87 8.82 14.76 9.21L14.76 9.21L14.76 9.21Q14.69 9.48 14.67 9.56L14.67 9.56L14.67 9.56Q14.66 9.65 14.74 9.65L14.74 9.65L17.12 9.65L17.12 9.65Q17.19 9.65 17.19 9.59L17.19 9.59L17.19 9.59Q17.19 9.44 17.14 9.27L17.14 9.27L17.14 9.27Q17.01 8.86 16.70 8.62L16.70 8.62L16.70 8.62Q16.39 8.39 15.92 8.39L15.92 8.39ZM24.81 4.44L24.81 4.44Q24.81 4.20 25.05 4.20L25.05 4.20L26.54 4.20L26.54 4.20Q26.78 4.20 26.78 4.44L26.78 4.44L26.78 13.76L26.78 13.76Q26.78 14 26.54 14L26.54 14L25.05 14L25.05 14Q24.81 14 24.81 13.76L24.81 13.76L24.81 13.38L24.81 13.38Q24.81 13.33 24.77 13.32L24.77 13.32L24.77 13.32Q24.74 13.31 24.71 13.36L24.71 13.36L24.71 13.36Q24.14 14.11 23.11 14.11L23.11 14.11L23.11 14.11Q22.16 14.11 21.43 13.54L21.43 13.54L21.43 13.54Q20.69 12.98 20.41 12.05L20.41 12.05L20.41 12.05Q20.17 11.38 20.17 10.37L20.17 10.37L20.17 10.37Q20.17 9.34 20.44 8.64L20.44 8.64L20.44 8.64Q20.75 7.74 21.46 7.21L21.46 7.21L21.46 7.21Q22.16 6.68 23.11 6.68L23.11 6.68L23.11 6.68Q24.15 6.68 24.71 7.36L24.71 7.36L24.71 7.36Q24.74 7.41 24.77 7.39L24.77 7.39L24.77 7.39Q24.81 7.38 24.81 7.32L24.81 7.32L24.81 4.44ZM24.51 11.79L24.51 11.79Q24.79 11.27 24.79 10.40L24.79 10.40L24.79 10.40Q24.79 9.48 24.50 8.96L24.50 8.96L24.50 8.96Q24.15 8.41 23.56 8.41L23.56 8.41L23.56 8.41Q22.92 8.41 22.58 8.95L22.58 8.95L22.58 8.95Q22.25 9.51 22.25 10.42L22.25 10.42L22.25 10.42Q22.25 11.24 22.54 11.79L22.54 11.79L22.54 11.79Q22.88 12.39 23.56 12.39L23.56 12.39L23.56 12.39Q24.18 12.39 24.51 11.79L24.51 11.79ZM31.85 6.71L31.85 6.71Q32.30 6.71 32.59 6.87L32.59 6.87L32.59 6.87Q32.76 6.96 32.72 7.17L32.72 7.17L32.45 8.64L32.45 8.64Q32.44 8.76 32.38 8.79L32.38 8.79L32.38 8.79Q32.31 8.82 32.17 8.79L32.17 8.79L32.17 8.79Q31.95 8.74 31.77 8.74L31.77 8.74L31.77 8.74Q31.67 8.74 31.44 8.76L31.44 8.76L31.44 8.76Q30.94 8.81 30.59 9.13L30.59 9.13L30.59 9.13Q30.24 9.46 30.24 10.01L30.24 10.01L30.24 13.76L30.24 13.76Q30.24 14 30.00 14L30.00 14L28.50 14L28.50 14Q28.27 14 28.27 13.76L28.27 13.76L28.27 7.04L28.27 7.04Q28.27 6.80 28.50 6.80L28.50 6.80L30.00 6.80L30.00 6.80Q30.24 6.80 30.24 7.04L30.24 7.04L30.24 7.48L30.24 7.48Q30.24 7.53 30.27 7.55L30.27 7.55L30.27 7.55Q30.30 7.56 30.34 7.52L30.34 7.52L30.34 7.52Q30.90 6.71 31.85 6.71L31.85 6.71Z"/>
  </g>
  <defs data-v-fde0c5aa="">
    <linearGradient data-v-fde0c5aa="" gradientTransform="rotate(25)" id="5543b487-35a8-4550-9b56-5dff560951c9" x1="0%" y1="0%" x2="100%" y2="0%">
      <stop data-v-fde0c5aa="" offset="0" stop-color="#395ECA" stop-opacity="1"/>
      <stop data-v-fde0c5aa="" offset="1" stop-color="#848BD8" stop-opacity="1"/>
    </linearGradient>
  </defs>
  <g data-v-fde0c5aa="" id="8ca2d458-7605-4b67-ad16-75b2e39416aa" stroke="none" fill="url(#5543b487-35a8-4550-9b56-5dff560951c9)" transform="matrix(0.9200124801137644,0,0,0.9200124801137644,40,111.69297790256478)">
    <path d="M79.819 31.377c-.146 3.156-1.882 5.77-4.226 6.573 1.652-1.278 2.756-3.564 2.756-6.182 0-.962-.142-1.843-.401-2.665-3.407-9.097-12.158-16.112-26.673-16.112-15.459 0-28.016 11.951-28.313 24.89a22.263 22.263 0 0 0-3.865-.336C8.55 37.546 0 44.875 0 53.914 0 62.956 6.139 70.15 16.687 70.15l61.585.133.044.001.05-.001.646.001.004-.019c13.504-.201 20.805-6.133 20.805-18.356 0-10.901-8.832-19.788-20.002-20.532z"/>
  </g>
</svg>